<?xml version="1.0" encoding="utf-8"?>
<!-- Generator: Adobe Illustrator 25.2.1, SVG Export Plug-In . SVG Version: 6.00 Build 0)  -->
<svg version="1.1" id="Lager_1" xmlns="http://www.w3.org/2000/svg" xmlns:xlink="http://www.w3.org/1999/xlink" x="0px" y="0px"
	 viewBox="0 0 415.5 415.14" style="enable-background:new 0 0 415.5 415.14;" xml:space="preserve">
<g>
	<g>
		<path d="M384.47,210.98c-0.91,3.88-2.2,6.69-4.26,9.35c-2.2,2.81-5.24,4.03-10.34,4.03h-2.96c-6.61,0-7.45-1.22-7.45-10.49V201.7
			h5.32c5.62,0,6.84,1.22,6.84,6.84v0.61h2.58v-17.33h-2.58v0.53c0,5.4-1.29,6.61-6.99,6.61h-5.17v-19.99h7.9
			c6.31,0,8.06,0.53,10.18,3.12c1.29,1.6,2.13,3.57,2.96,6.99h2.51l-0.99-12.77H343.5v2.51h0.68c5.02,0,6,1.52,6,9.35v26.6
			c0,8.13-0.99,9.73-6.38,9.73h-0.99v2.51h43.4l0.84-16.04H384.47z M330.28,228.08v-40.96c0-3.04,0.08-3.8,0.68-4.94
			c0.91-1.75,3.34-3.04,6.16-3.27l0.61-0.08v-2.51h-18.32v2.51h0.76c1.98,0.08,3.95,0.68,5.32,1.75c1.52,1.14,1.98,2.66,1.98,6.16
			v26.3l-29.34-36.71h-15.66v2.51h0.46c2.43,0,4.18,0.38,4.94,1.06c1.29,0.99,2.05,4.48,2.05,8.82v26.52c0,4.1-0.08,5.17-0.61,6.08
			c-0.99,1.75-3.72,2.96-6.76,3.12l-0.38,0.08v2.51h18.92v-2.51h-0.53h-0.15c-3.04,0-5.7-1.22-6.92-3.19
			c-0.61-1.06-0.68-1.14-0.76-6.08v-31.16l34.88,44H330.28z M270.7,188.18c0-8.21,0.84-9.35,6.61-9.35h0.99v-2.51h-24.4v2.51h0.91
			c5.78,0,6.61,1.14,6.61,9.35v26.6c0,8.13-0.99,9.73-6.31,9.73h-1.22v2.51h24.4v-2.51H277c-5.32,0-6.31-1.6-6.31-9.73V188.18z
			 M202.98,189.24c0.61-3.88,1.82-6.92,3.27-8.44c1.37-1.44,3.12-1.82,8.13-1.82h6.38v35.8c0,8.13-0.99,9.73-6.31,9.73h-2.2v2.51
			h26.22v-2.51h-2.13c-5.32,0-6.31-1.6-6.31-9.73v-35.8h6.84c4.03,0,5.47,0.3,6.92,1.29c1.82,1.22,3.27,4.33,4.18,8.97h2.43
			l-0.15-12.92h-49.63l-0.15,12.92H202.98z M164.68,226.33h2.74c0.38-1.98,0.84-3.34,1.67-4.64c3.57,4.1,8.44,6.31,13.91,6.31
			c9.35,0,16.11-6.31,16.11-14.97c0-3.88-1.44-7.52-3.95-10.18c-2.13-2.13-5.55-4.1-12.46-7.14c-8.21-3.57-11.1-6.31-11.1-10.49
			c0-4.26,3.27-7.14,7.9-7.14c6.08,0,10.94,4.56,12.77,12.08h2.51v-13.83h-2.51l-0.08,0.08c-0.23,1.75-0.61,2.66-1.67,4.03
			c-3.34-3.5-6.92-5.02-11.4-5.02c-8.13,0-14.21,5.7-14.21,13.45c0,2.36,0.61,4.64,1.75,6.84c1.75,3.12,5.09,5.7,11.25,8.51
			c8.59,3.95,9.12,4.26,11.55,6.61c1.44,1.37,2.36,3.57,2.36,5.62c0,5.02-4.18,8.66-9.8,8.66c-4.56,0-8.59-2.28-11.25-6.38
			c-1.52-2.28-2.51-4.94-3.34-8.97h-2.74V226.33z M150.54,188.18c0-8.21,0.84-9.35,6.61-9.35h0.99v-2.51h-24.4v2.51h0.91
			c5.78,0,6.61,1.14,6.61,9.35v26.6c0,8.13-0.99,9.73-6.31,9.73h-1.22v2.51h24.4v-2.51h-1.29c-5.32,0-6.31-1.6-6.31-9.73V188.18z
			 M93.77,178.75c1.29-0.08,1.9-0.08,2.96-0.08c5.02,0,8.06,0.76,9.88,2.36c2.13,1.82,3.19,4.71,3.19,8.51
			c0,6.31-2.74,9.96-7.98,10.64c-2.2,0.23-4.94,0.38-8.06,0.38V178.75z M131.24,227.01v-2.51h-0.38
			c-4.64-0.23-7.68-2.66-13.45-10.64c-4.64-6.76-8.13-10.79-10.49-12.08c8.66-1.82,13-6,13-12.62c0-4.33-2.28-8.06-6.23-10.26
			c-3.65-2.05-9.58-3.12-17.25-3.12c-2.2,0-5.17,0.08-10.41,0.23l-9.12,0.3v2.51h0.91c5.85,0,6.61,1.14,6.61,9.35v26.6
			c0,8.21-0.99,9.73-6.31,9.73h-1.44v2.51h25.31v-2.51h-1.9c-5.32,0-6.31-1.6-6.31-9.73V203.3H94h0.15
			c5.24-0.3,5.85,0.23,12.92,11.1c3.95,6.23,7.37,10.72,9.8,12.62H131.24z M45.89,200.87v-22.19c0.99-0.08,1.37-0.08,2.43-0.08
			c2.36,0,4.56,0.15,5.7,0.46c4.71,1.06,7.3,4.94,7.3,10.87c0,4.48-1.67,7.98-4.48,9.5c-2.05,1.14-3.8,1.44-7.68,1.44H45.89z
			 M50.83,203.6h0.84h0.46c4.48,0.08,8.82-0.53,11.4-1.6c4.94-1.98,7.9-6.61,7.9-12.24c0-4.41-1.6-7.75-5.02-10.26
			c-3.57-2.66-8.06-3.65-17.02-3.65c-4.33,0-8.59,0.08-12.46,0.23c-3.27,0.15-5.7,0.23-6.61,0.23h-1.29v2.51h0.99
			c5.78,0,6.61,1.14,6.61,9.35v26.6c0,8.13-0.99,9.73-6.31,9.73H29.1v2.51h24.62v-2.51H52.2c-5.32,0-6.31-1.6-6.31-9.73V203.6H50.83
			z"/>
	</g>
	<g>
		<path d="M253.24,128.89c-1.56,0-2.46-1.13-2.46-2.97c0-1.89,0.83-3.15,2.3-3.15c1.59,0,2.6,1.52,2.6,4.51
			c0,0.39-0.02,0.78-0.07,1.15C254.97,128.68,254.09,128.89,253.24,128.89 M253.08,121.37c-2.94,0-5.29,2.07-5.29,4.92
			c0,2.74,2.07,4.32,4.16,4.32c1.38,0,2.53-0.41,3.38-0.94c-0.71,2.23-2.58,3.89-5.98,5.2l0.41,1.1c5.61-1.61,8.9-4.92,8.9-9.15
			C258.67,123.78,256.81,121.37,253.08,121.37 M236.84,132.64h7.38v-1.54h-2.21l-0.11-0.12v-9.27h-5.06v1.54h2.18l0.11,0.11v7.61
			l-0.11,0.12h-2.18V132.64z M227.09,131.6c-1.84,0-2.67-1.54-2.67-4.48c0-2.81,0.94-4.37,2.65-4.37c1.77,0,2.65,1.66,2.65,4.39
			C229.71,129.97,228.91,131.6,227.09,131.6 M227.07,132.98c3.36,0,5.63-2.35,5.63-5.84c0-3.5-2.18-5.77-5.61-5.77
			c-3.38,0-5.66,2.32-5.66,5.77C221.43,130.68,223.62,132.98,227.07,132.98 M216.21,128.82v1.52l-0.11,0.11h-4.74l1.54-0.97
			c2.83-1.77,3.96-3.22,3.96-5.11c0-1.89-1.49-3.01-4.05-3.01c-1.31,0-2.62,0.44-3.77,1.2v3.84h0.32l1.13-1.75
			c0.99-1.54,1.54-1.91,2.28-1.91c0.87,0,1.36,0.76,1.36,1.77c0,2.05-1.56,3.38-4.3,5.84l-1.13,1.01v1.27h9.06v-3.82H216.21z
			 M192.82,132.98c0.97,0,1.73-0.78,1.73-1.73s-0.76-1.73-1.73-1.73c-0.94,0-1.73,0.78-1.73,1.73S191.88,132.98,192.82,132.98
			 M183.9,132.87c1.31,0,2.58-0.58,3.45-1.33l-0.44-0.8c-0.53,0.28-1.17,0.51-1.7,0.51c-0.92,0-1.26-0.64-1.26-2.48v-4.3H187v-1.47
			h-3.06v-2.74h-0.3l-3.75,3.91v0.3h1.29l0.12,0.11v5.29C181.3,132.06,182.24,132.87,183.9,132.87 M173.3,132.87
			c2.37,0,3.75-1.13,3.75-2.99c0-1.36-0.83-2.19-2.6-3.08c-1.24-0.62-2.21-1.08-2.21-1.93c0-0.48,0.37-0.9,1.08-0.9
			c0.55,0,1.04,0.28,1.45,0.67l1.33,1.59h0.3v-3.11c-0.87-0.32-1.7-0.48-2.71-0.48c-2.3,0-3.82,1.04-3.82,2.78
			c0,1.4,0.71,2.21,2.46,3.22c1.15,0.67,2.35,0.97,2.35,1.93c0,0.53-0.35,0.97-1.2,0.97c-0.76,0-1.49-0.46-2.07-1.17l-1.26-1.56
			h-0.3v3.31C170.72,132.52,172.15,132.87,173.3,132.87 M161.93,123.97c0.94,0,1.52,0.64,1.56,2.58h-3.27
			C160.32,124.86,160.92,123.97,161.93,123.97 M163.34,131.3c-1.89,0-2.94-1.36-3.11-3.56h5.7c0.09-0.51,0.11-0.83,0.11-1.24
			c0-2.28-1.45-3.86-3.79-3.86c-2.83,0-4.85,2.32-4.85,5.29c0,3.01,2.12,4.95,4.85,4.95c1.45,0,2.67-0.53,3.7-1.33l-0.44-0.8
			C164.72,131.12,164.03,131.3,163.34,131.3"/>
	</g>
	<g>
		<path d="M208.04,414.29C94.11,414.29,1.42,321.6,1.42,207.67C1.42,93.74,94.11,1.06,208.04,1.06s206.62,92.69,206.62,206.62
			C414.65,321.6,321.97,414.29,208.04,414.29z M208.04,5.06C96.31,5.06,5.42,95.95,5.42,207.67s90.89,202.62,202.62,202.62
			c111.72,0,202.62-90.89,202.62-202.62S319.76,5.06,208.04,5.06z"/>
	</g>
	<g>
		<path d="M276.2,282.96c-4,0-10.56-10.09-10.56-16.33c0-1.62,0.78-2.46,1.94-2.46c4.15,0,10.59,10.09,10.59,16.33
			C278.17,282.18,277.48,282.96,276.2,282.96 M272.23,284.58c6.64,0,10.44-5.25,10.44-10.93c0-6.35-4.73-11.11-11.08-11.11
			c-6.61,0-10.47,5.25-10.47,10.93C261.12,279.86,265.9,284.58,272.23,284.58 M274.87,261.5c1.68,0,2.7-1.19,2.7-2.87
			c0-1.62-1.02-2.87-2.7-2.87c-1.68,0-2.7,1.25-2.7,2.87C272.17,260.31,273.18,261.5,274.87,261.5 M268.34,261.5
			c1.68,0,2.7-1.19,2.7-2.87c0-1.62-1.02-2.87-2.7-2.87s-2.7,1.25-2.7,2.87C265.64,260.31,266.66,261.5,268.34,261.5 M236.96,288.64
			c4.93,0,7.4-2.81,7.4-7.19v-7.39h-0.03v-9.37l2.58-1.57h-11.54l2.58,1.57v17.75c0,4.55-0.96,5.68-3.31,5.68h-0.35v0.17
			C235.22,288.56,236.01,288.64,236.96,288.64 M219.8,283.54l-6.21-11.05l5.22-7.8l2.58-1.57h-7.8l3.02,1.57L213.3,272l-4.12-7.31
			l2.29-1.57h-11.92l2.29,1.57l5.6,9.89l-6.24,8.96h-1.97V284h6.26v-0.46h-2.09l4.29-8.5l4.79,8.5h-2.12V284h11.37v-0.46H219.8z
			 M169.07,277.57l2.73-8.41l3.57,8.41H169.07z M184.85,283.54l-9.19-21h-1.51l-9.22,21h-1.19V284h6.41v-0.46h-2.99l1.77-5.45h6.67
			l2.29,5.45h-2.38V284h10.67v-0.46H184.85z M178.21,261.5c1.68,0,2.7-1.19,2.7-2.87c0-1.62-1.01-2.87-2.7-2.87
			c-1.68,0-2.7,1.25-2.7,2.87C175.51,260.31,176.53,261.5,178.21,261.5 M171.68,261.5c1.68,0,2.7-1.19,2.7-2.87
			c0-1.62-1.01-2.87-2.7-2.87c-1.68,0-2.7,1.25-2.7,2.87C168.99,260.31,170,261.5,171.68,261.5 M148.83,263.12l3.45,1.57
			l-3.89,13.14l-5.71-13.14l2.58-1.57H133.4l2.29,1.57l8.93,19.89h1.51l8.35-19.89l2.58-1.57H148.83z"/>
	</g>
	<g>
		<rect x="72.69" y="276.16" width="25.51" height="1"/>
	</g>
	<g>
		<rect x="317.87" y="276.16" width="25.51" height="1"/>
	</g>
</g>
</svg>
