<?xml version="1.0" encoding="utf-8"?>
<!-- Generator: Adobe Illustrator 25.2.1, SVG Export Plug-In . SVG Version: 6.00 Build 0)  -->
<svg version="1.1" id="Lager_1" xmlns="http://www.w3.org/2000/svg" xmlns:xlink="http://www.w3.org/1999/xlink" x="0px" y="0px"
	 viewBox="0 0 360.26 54.78" style="enable-background:new 0 0 360.26 54.78;" xml:space="preserve">
<g>
	<path d="M356.54,36.66c-0.91,3.88-2.2,6.69-4.26,9.35c-2.2,2.81-5.24,4.03-10.34,4.03h-2.96c-6.61,0-7.45-1.22-7.45-10.49V27.39
		h5.32c5.62,0,6.84,1.22,6.84,6.84v0.61h2.58V17.51h-2.58v0.53c0,5.4-1.29,6.61-6.99,6.61h-5.17V4.67h7.9
		c6.31,0,8.06,0.53,10.18,3.12c1.29,1.6,2.13,3.57,2.96,6.99h2.51L354.1,2.01h-38.53v2.51h0.68c5.02,0,6,1.52,6,9.35v26.6
		c0,8.13-0.99,9.73-6.38,9.73h-0.99v2.51h43.4l0.84-16.04H356.54z M302.35,53.76V12.8c0-3.04,0.08-3.8,0.68-4.94
		c0.91-1.75,3.34-3.04,6.16-3.27l0.61-0.08V2.01h-18.32v2.51h0.76c1.98,0.08,3.95,0.68,5.32,1.75c1.52,1.14,1.98,2.66,1.98,6.16
		v26.3L270.2,2.01h-15.66v2.51H255c2.43,0,4.18,0.38,4.94,1.06c1.29,0.99,2.05,4.48,2.05,8.82v26.52c0,4.1-0.08,5.17-0.61,6.08
		c-0.99,1.75-3.72,2.96-6.76,3.12l-0.38,0.08v2.51h18.92v-2.51h-0.53h-0.15c-3.04,0-5.7-1.22-6.92-3.19
		c-0.61-1.06-0.68-1.14-0.76-6.08V9.76l34.88,44H302.35z M242.76,13.86c0-8.21,0.84-9.35,6.61-9.35h0.99V2.01h-24.4v2.51h0.91
		c5.78,0,6.61,1.14,6.61,9.35v26.6c0,8.13-0.99,9.73-6.31,9.73h-1.22v2.51h24.4v-2.51h-1.29c-5.32,0-6.31-1.6-6.31-9.73V13.86z
		 M175.05,14.93c0.61-3.88,1.82-6.92,3.27-8.44c1.37-1.44,3.12-1.82,8.13-1.82h6.38v35.8c0,8.13-0.99,9.73-6.31,9.73h-2.2v2.51
		h26.22v-2.51h-2.13c-5.32,0-6.31-1.6-6.31-9.73V4.67h6.84c4.03,0,5.47,0.3,6.92,1.29c1.82,1.22,3.27,4.33,4.18,8.97h2.43
		l-0.15-12.92h-49.63l-0.15,12.92H175.05z M136.75,52.02h2.74c0.38-1.98,0.84-3.34,1.67-4.64c3.57,4.1,8.44,6.31,13.91,6.31
		c9.35,0,16.11-6.31,16.11-14.97c0-3.88-1.44-7.52-3.95-10.18c-2.13-2.13-5.55-4.1-12.46-7.14c-8.21-3.57-11.1-6.31-11.1-10.49
		c0-4.26,3.27-7.14,7.9-7.14c6.08,0,10.94,4.56,12.77,12.08h2.51V2.01h-2.51l-0.08,0.08c-0.23,1.75-0.61,2.66-1.67,4.03
		c-3.34-3.5-6.92-5.02-11.4-5.02c-8.13,0-14.21,5.7-14.21,13.45c0,2.36,0.61,4.64,1.75,6.84c1.75,3.12,5.09,5.7,11.25,8.51
		c8.59,3.95,9.12,4.26,11.55,6.61c1.44,1.37,2.36,3.57,2.36,5.62c0,5.02-4.18,8.66-9.8,8.66c-4.56,0-8.59-2.28-11.25-6.38
		c-1.52-2.28-2.51-4.94-3.34-8.97h-2.74V52.02z M122.61,13.86c0-8.21,0.84-9.35,6.61-9.35h0.99V2.01h-24.4v2.51h0.91
		c5.78,0,6.61,1.14,6.61,9.35v26.6c0,8.13-0.99,9.73-6.31,9.73h-1.22v2.51h24.4v-2.51h-1.29c-5.32,0-6.31-1.6-6.31-9.73V13.86z
		 M65.84,4.44c1.29-0.08,1.9-0.08,2.96-0.08c5.02,0,8.06,0.76,9.88,2.36c2.13,1.82,3.19,4.71,3.19,8.51c0,6.31-2.74,9.96-7.98,10.64
		c-2.2,0.23-4.94,0.38-8.06,0.38V4.44z M103.31,52.7v-2.51h-0.38c-4.64-0.23-7.68-2.66-13.45-10.64
		c-4.64-6.76-8.13-10.79-10.49-12.08c8.66-1.82,13-6,13-12.62c0-4.33-2.28-8.06-6.23-10.26C82.1,2.54,76.17,1.48,68.5,1.48
		c-2.2,0-5.17,0.08-10.41,0.23l-9.12,0.3v2.51h0.91c5.85,0,6.61,1.14,6.61,9.35v26.6c0,8.21-0.99,9.73-6.31,9.73h-1.44v2.51h25.31
		v-2.51h-1.9c-5.32,0-6.31-1.6-6.31-9.73V28.99h0.23h0.15c5.24-0.3,5.85,0.23,12.92,11.1c3.95,6.23,7.37,10.72,9.8,12.62H103.31z
		 M17.96,26.56V4.36c0.99-0.08,1.37-0.08,2.43-0.08c2.36,0,4.56,0.15,5.7,0.46c4.71,1.06,7.3,4.94,7.3,10.87
		c0,4.48-1.67,7.98-4.48,9.5c-2.05,1.14-3.8,1.44-7.68,1.44H17.96z M22.9,29.29h0.84h0.46c4.48,0.08,8.82-0.53,11.4-1.6
		c4.94-1.98,7.9-6.61,7.9-12.24c0-4.41-1.6-7.75-5.02-10.26c-3.57-2.66-8.06-3.65-17.02-3.65c-4.33,0-8.59,0.08-12.46,0.23
		c-3.27,0.15-5.7,0.23-6.61,0.23H1.09v2.51h0.99c5.78,0,6.61,1.14,6.61,9.35v26.6c0,8.13-0.99,9.73-6.31,9.73H1.16v2.51h24.62v-2.51
		h-1.52c-5.32,0-6.31-1.6-6.31-9.73V29.29H22.9z"/>
</g>
</svg>
